<svg width="60" height="60" viewBox="0 0 60 60" fill="none" xmlns="http://www.w3.org/2000/svg">
<path d="M56.6667 53.3333H53.3333V6.66667C53.3333 4.83333 51.8333 3.33333 50 3.33333H36.6667C36.6667 1.5 35.1667 0 33.3333 0H10C8.16667 0 6.66667 1.5 6.66667 3.33333V53.3333H3.33333C1.5 53.3333 0 54.8333 0 56.6667C0 58.5 1.5 60 3.33333 60H33.3333C35.1667 60 36.6667 58.5 36.6667 56.6667V10H46.6667V56.6667C46.6667 58.5 48.1667 60 50 60H56.6667C58.5 60 60 58.5 60 56.6667C60 54.8333 58.5 53.3333 56.6667 53.3333ZM30 33.3333H23.3333V26.6667H30V33.3333Z" fill="white"/>
</svg>
