<svg width="60" height="71" viewBox="0 0 60 71" fill="none" xmlns="http://www.w3.org/2000/svg">
<path d="M21.4858 0.0213968C21.0901 0.0802461 20.7121 0.225467 20.3788 0.446757C20.3788 0.446757 16.9296 2.61718 13.2213 4.96484C9.51304 7.30978 5.38759 9.89466 4.44416 10.4182C4.38597 10.4434 4.32868 10.4707 4.27238 10.5C0.84769 12.6131 0.13603 16.0651 0.0133304 18.001C0.00515037 18.091 0.0133304 18.1646 0.0133304 18.2601C-0.016663 18.9854 0.0133304 19.4516 0.0133304 19.4516V55.0701C0.0133304 60.2453 6.04745 62.7347 11.7734 62.7347C13.6821 62.7347 15.5908 62.4266 17.2268 61.8813C18.3174 61.336 19.1 60.2453 19.1 59.1546V30.5246C19.1 24.2533 20.4633 21.3085 24.5533 18.8545C25.644 18.3092 37.0796 10.4155 37.0796 10.4155C37.625 9.87012 38.1867 8.76309 38.1867 7.94509V7.68878C38.1867 6.59812 37.6413 5.76376 36.8233 5.21842C36.0053 4.67309 34.9147 4.67309 34.0967 5.21842C33.824 5.49109 17.1913 16.6895 13.6467 18.5982C10.102 20.7795 6.79455 21.3058 5.97655 20.2151C5.72297 19.9615 5.50211 19.1844 5.46666 18.4264V18.3419V18.2546C5.46939 17.513 5.66026 16.1169 7.17083 15.1871C8.70322 14.3337 12.5069 11.9042 16.2043 9.56473C17.7667 8.57495 17.9603 8.46861 19.1845 7.68878C19.3457 8.35489 19.7518 8.93588 20.322 9.31611C20.8921 9.69633 21.5846 9.8479 22.2615 9.74065C22.9383 9.63339 23.55 9.27518 23.9747 8.73731C24.3994 8.19944 24.606 7.52136 24.5533 6.83806V2.74806C24.5564 2.35942 24.4763 1.97461 24.3185 1.61944C24.1607 1.26427 23.9287 0.946941 23.6382 0.688731C23.3478 0.430521 23.0054 0.237395 22.6342 0.1223C22.263 0.00720591 21.8714 -0.0271974 21.4858 0.0213968ZM43.2992 9.56473C42.8656 9.63684 42.4558 9.81271 42.1049 10.0773C42.1049 10.0773 28.3788 19.3126 26.0012 20.8968C25.9724 20.9252 25.9442 20.9543 25.9167 20.984C23.9426 22.4646 22.7728 24.226 22.252 25.8375C21.8839 26.98 21.8294 27.9125 21.8267 28.6514V29.5048C21.8227 29.5893 21.8227 29.6739 21.8267 29.7584V62.7347C21.8267 67.9154 27.7926 70.9147 33.2459 70.9147C35.6999 70.9147 37.914 70.3858 39.55 69.2951C42.822 67.3864 58.6367 55.0673 58.6367 55.0673C59.4547 54.522 60 53.7531 60 52.9351V17.4884C60 16.1251 59.471 15.3071 58.3804 14.7618C57.5624 14.2164 56.2181 14.4727 55.4001 15.0181C51.0374 18.2901 39.2937 27.528 36.567 29.164C32.7497 31.3453 29.1532 31.8907 27.7899 30.5273C27.2446 29.982 27.28 29.4694 27.28 28.6514C27.2964 28.1824 27.3482 27.7789 27.4518 27.4571C27.6045 26.9827 27.9153 26.3992 29.0687 25.4994C29.1232 25.4557 29.096 25.4585 29.1532 25.4148C31.1246 24.0979 37.1533 19.9888 41.0851 17.3166C41.3079 17.9142 41.7331 18.4149 42.2867 18.7314C42.8404 19.0479 43.4875 19.1604 44.1155 19.0492C44.7435 18.938 45.3126 18.6102 45.7239 18.1227C46.1352 17.6353 46.3627 17.0192 46.3667 16.3814V12.2914C46.3697 11.9028 46.2896 11.5179 46.1318 11.1628C45.974 10.8076 45.7421 10.4903 45.4516 10.2321C45.1611 9.97386 44.8188 9.78073 44.4475 9.66564C44.0763 9.55054 43.6848 9.51614 43.2992 9.56473ZM54.5467 29.5048V34.9582L40.9133 45.5213V40.068L54.5467 29.5048Z" fill="white"/>
</svg>
