<svg width="24" height="29" viewBox="0 0 24 29" fill="none" xmlns="http://www.w3.org/2000/svg">
<g clip-path="url(#clip0)">
<path d="M8.59432 0.00855871C8.43604 0.0320984 8.28484 0.0901868 8.15152 0.178703C8.15152 0.178703 6.77184 1.04687 5.28852 1.98594C3.80522 2.92391 2.15504 3.95786 1.77766 4.16728C1.75439 4.17736 1.73147 4.18828 1.70895 4.2C0.339076 5.04524 0.054412 6.42604 0.00533216 7.2004C0.00206015 7.2364 0.00533216 7.26584 0.00533216 7.30404C-0.0066652 7.59416 0.00533216 7.78064 0.00533216 7.78064V22.028C0.00533216 24.0981 2.41898 25.0939 4.70936 25.0939C5.47284 25.0939 6.23632 24.9706 6.89072 24.7525C7.32696 24.5344 7.64 24.0981 7.64 23.6618V12.2098C7.64 9.70132 8.18532 8.5234 9.82132 7.5418C10.2576 7.32368 14.8318 4.1662 14.8318 4.1662C15.05 3.94805 15.2747 3.50524 15.2747 3.17804V3.07551C15.2747 2.63925 15.0565 2.3055 14.7293 2.08737C14.4021 1.86924 13.9659 1.86924 13.6387 2.08737C13.5296 2.19644 6.87652 6.6758 5.45868 7.43928C4.0408 8.3118 2.71782 8.52232 2.39062 8.08604C2.28919 7.9846 2.20084 7.67376 2.18666 7.37056V7.33676V7.30184C2.18776 7.0052 2.2641 6.44676 2.86833 6.07484C3.48129 5.73348 5.00276 4.76168 6.48172 3.82589C7.10668 3.42998 7.18412 3.38744 7.6738 3.07551C7.73828 3.34196 7.90072 3.57435 8.1288 3.72644C8.35684 3.87853 8.63384 3.93916 8.9046 3.89626C9.17532 3.85336 9.42 3.71007 9.58988 3.49492C9.75976 3.27978 9.8424 3.00854 9.82132 2.73522V1.09922C9.82256 0.943768 9.79052 0.789844 9.7274 0.647776C9.66428 0.505708 9.57148 0.378776 9.45528 0.275492C9.33912 0.172208 9.20216 0.094958 9.05368 0.04892C8.9052 0.00288236 8.74856 -0.010879 8.59432 0.00855871ZM17.3197 3.82589C17.1462 3.85474 16.9823 3.92508 16.842 4.03092C16.842 4.03092 11.3515 7.72504 10.4005 8.35872C10.389 8.37008 10.3777 8.38172 10.3667 8.3936C9.57704 8.98584 9.10912 9.6904 8.9008 10.335C8.75356 10.792 8.73176 11.165 8.73068 11.4606V11.8019C8.72908 11.8357 8.72908 11.8696 8.73068 11.9034V25.0939C8.73068 27.1662 11.117 28.3659 13.2984 28.3659C14.28 28.3659 15.1656 28.1543 15.82 27.718C17.1288 26.9546 23.4547 22.0269 23.4547 22.0269C23.7819 21.8088 24 21.5012 24 21.174V6.99536C24 6.45004 23.7884 6.12284 23.3522 5.90472C23.025 5.68656 22.4872 5.78908 22.16 6.00724C20.415 7.31604 15.7175 11.0112 14.6268 11.6656C13.0999 12.5381 11.6613 12.7563 11.116 12.2109C10.8978 11.9928 10.912 11.7878 10.912 11.4606C10.9186 11.273 10.9393 11.1116 10.9807 10.9828C11.0418 10.7931 11.1661 10.5597 11.6275 10.1998C11.6493 10.1823 11.6384 10.1834 11.6613 10.1659C12.4498 9.63916 14.8613 7.99552 16.434 6.92664C16.5232 7.16568 16.6932 7.36596 16.9147 7.49256C17.1362 7.61916 17.395 7.66416 17.6462 7.61968C17.8974 7.5752 18.125 7.44408 18.2896 7.24908C18.4541 7.05412 18.5451 6.80768 18.5467 6.55256V4.91656C18.5479 4.76112 18.5158 4.60716 18.4527 4.46512C18.3896 4.32304 18.2968 4.19612 18.1806 4.09284C18.0644 3.98954 17.9275 3.91229 17.779 3.86626C17.6305 3.82022 17.4739 3.80646 17.3197 3.82589ZM21.8187 11.8019V13.9833L16.3653 18.2085V16.0272L21.8187 11.8019Z" fill="white"/>
</g>
<defs>
<clipPath id="clip0">
<rect width="24" height="28.4" fill="white"/>
</clipPath>
</defs>
</svg>
