<svg width="24" height="24" viewBox="0 0 24 24" fill="none" xmlns="http://www.w3.org/2000/svg">
<g clip-path="url(#clip0)">
<path d="M23.437 10.4867L14.939 1.29967C14.5645 0.894454 14.1102 0.571106 13.6046 0.349959C13.0991 0.128811 12.5533 0.0146484 12.0015 0.0146484C11.4497 0.0146484 10.9039 0.128811 10.3984 0.349959C9.89283 0.571106 9.43852 0.894454 9.064 1.29967L0.581 10.4837C0.208713 10.8585 -0.000155505 11.3654 8.68665e-08 11.8937V20.9997C8.68665e-08 21.7953 0.316071 22.5584 0.87868 23.121C1.44129 23.6836 2.20435 23.9997 3 23.9997H7V17.9997C7.00335 17.1015 7.24932 16.2209 7.71192 15.4509C8.17451 14.681 8.83653 14.0504 9.628 13.6257C9.678 13.5977 9.728 13.5697 9.78 13.5427C9.96671 13.4497 10.1591 13.3685 10.356 13.2997C10.491 13.2507 10.628 13.2087 10.769 13.1717C10.91 13.1347 11.08 13.1017 11.24 13.0717C11.328 13.0577 11.41 13.0277 11.5 13.0187C11.654 13.0037 11.8 13.0007 11.955 12.9997C11.971 12.9997 11.985 12.9947 12 12.9947H12.018C12.3275 12.9971 12.6362 13.0282 12.94 13.0877C12.974 13.0947 13.008 13.0977 13.04 13.1047C13.325 13.1669 13.6041 13.2539 13.874 13.3647C13.912 13.3797 13.95 13.3937 13.988 13.4107C14.2462 13.5227 14.4945 13.6565 14.73 13.8107L14.841 13.8847C15.0696 14.0436 15.2847 14.2212 15.484 14.4157C15.516 14.4467 15.546 14.4777 15.577 14.5097C15.7722 14.7102 15.9508 14.9262 16.111 15.1557L16.179 15.2557C16.3364 15.4947 16.4732 15.7466 16.588 16.0087C16.601 16.0407 16.612 16.0727 16.625 16.1087C16.7393 16.3851 16.8283 16.6712 16.891 16.9637C16.891 16.9857 16.898 17.0087 16.902 17.0307C16.9663 17.3497 16.9991 17.6742 17 17.9997V23.9997H21C21.7956 23.9997 22.5587 23.6836 23.1213 23.121C23.6839 22.5584 24 21.7953 24 20.9997V11.8787C24.0002 11.3592 23.7983 10.8599 23.437 10.4867Z" fill="white"/>
<path d="M12 15C11.2044 15 10.4413 15.3161 9.87868 15.8787C9.31607 16.4413 9 17.2044 9 18V24H15V18C15 17.2044 14.6839 16.4413 14.1213 15.8787C13.5587 15.3161 12.7956 15 12 15Z" fill="white"/>
</g>
<defs>
<clipPath id="clip0">
<rect width="24" height="24" fill="white"/>
</clipPath>
</defs>
</svg>
