<svg width="60" height="59" viewBox="0 0 60 59" fill="none" xmlns="http://www.w3.org/2000/svg">
<path d="M13.5 58.8571H3C1.35 58.8571 0 57.3857 0 55.5873V22.8889C0 21.0905 1.35 19.619 3 19.619H13.5C15.15 19.619 16.5 21.0905 16.5 22.8889V55.5873C16.5 57.3857 15.15 58.8571 13.5 58.8571ZM35.25 0H24.75C23.1 0 21.75 1.47143 21.75 3.26984V55.5873C21.75 57.3857 23.1 58.8571 24.75 58.8571H35.25C36.9 58.8571 38.25 57.3857 38.25 55.5873V3.26984C38.25 1.47143 36.9 0 35.25 0ZM57 26.1587H46.5C44.85 26.1587 43.5 27.6302 43.5 29.4286V55.5873C43.5 57.3857 44.85 58.8571 46.5 58.8571H57C58.65 58.8571 60 57.3857 60 55.5873V29.4286C60 27.6302 58.65 26.1587 57 26.1587Z" fill="white"/>
</svg>
