<svg width="529" height="87" viewBox="0 0 529 87" fill="none" xmlns="http://www.w3.org/2000/svg">
<path d="M50 25.5259V72.1042C50 74.4531 48.3858 75.5736 46.4287 77.324C44.8573 78.7325 42.8573 76.9865 42.8573 74.6826V29.1708C42.8573 28.2214 42.5931 27.3169 41.7359 26.7634C40.8788 26.2099 14.101 8.47139 14.101 8.47139C13.6688 8.2689 11.7832 6.77044 9.26896 8.39939C6.87974 9.94735 5.57978 11.6303 5.24764 12.4223L34.4611 32.5907C35.2361 33.1037 35.7147 33.8957 35.7147 34.9127V83.5203C35.7058 84.0687 35.5784 84.6035 35.3462 85.0674C35.114 85.5312 34.7858 85.9065 34.3969 86.1528C34.0271 86.3827 33.62 86.5013 33.2076 86.4993C32.7226 86.5065 32.2455 86.3445 31.8291 86.0313C31.0612 85.4418 4.06553 64.5849 2.28344 63.2304C1.42632 62.5824 0.422773 61.255 0.401345 60.2695L0.00135614 13.9837C0.00135614 13.0928 -0.0807843 11.5223 1.03347 9.33987C3.52269 4.462 12.2082 -1.08635 16.6045 1.78907L48.7429 22.286C49.5179 22.79 50 23.798 50 25.5259Z" fill="#FD823C"/>
<path d="M123.224 66.48V70H115.864L103.832 51.952H92.76V64.496L97.496 66.48V70H82.52V66.48L87.256 64.496V31.984L82.52 30.128V26.48H108.056C112.195 26.48 115.331 27.568 117.464 29.744C119.597 31.8773 120.664 35.0347 120.664 39.216C120.664 42.928 119.768 45.8507 117.976 47.984C116.227 50.0747 113.645 51.3333 110.232 51.76L118.872 64.56L123.224 66.48ZM92.76 47.344H106.904C109.763 47.344 111.811 46.7253 113.048 45.488C114.285 44.208 114.904 42.1173 114.904 39.216C114.904 36.3573 114.307 34.288 113.112 33.008C111.96 31.728 110.104 31.088 107.544 31.088H92.76V47.344ZM143.938 36.976C148.29 36.976 151.81 38.3413 154.498 41.072C157.229 43.76 158.594 47.7707 158.594 53.104V55.664H133.506C133.719 58.5227 134.231 60.72 135.042 62.256C135.895 63.7493 137.111 64.7947 138.69 65.392C140.311 65.9893 142.53 66.288 145.346 66.288C149.399 66.288 153.41 65.7973 157.378 64.816V69.424C155.714 69.8507 153.773 70.192 151.554 70.448C149.335 70.7467 147.223 70.896 145.218 70.896C139.543 70.896 135.234 69.616 132.29 67.056C129.346 64.496 127.874 60.1227 127.874 53.936C127.874 48.176 129.325 43.9093 132.226 41.136C135.127 38.3627 139.031 36.976 143.938 36.976ZM143.618 41.584C140.29 41.584 137.858 42.3307 136.322 43.824C134.786 45.3173 133.869 47.7493 133.57 51.12H152.898C152.642 47.9627 151.767 45.5947 150.274 44.016C148.781 42.3947 146.562 41.584 143.618 41.584ZM197.363 66.48V70H189.747L188.083 65.392C186.333 67.184 184.435 68.5067 182.387 69.36C180.381 70.2133 178.12 70.64 175.603 70.64C171.507 70.64 168.477 69.8507 166.515 68.272C164.552 66.6933 163.571 64.1333 163.571 60.592C163.571 56.8373 164.744 54.128 167.091 52.464C169.437 50.7573 173.213 49.904 178.419 49.904C180.467 49.904 182.259 50.096 183.795 50.48C185.373 50.8213 186.653 51.248 187.635 51.76V49.264C187.635 47.3013 187.379 45.7867 186.867 44.72C186.397 43.6107 185.523 42.8213 184.243 42.352C183.005 41.84 181.192 41.584 178.803 41.584C174.493 41.584 170.013 42.096 165.363 43.12V38.512C170.099 37.488 174.621 36.976 178.931 36.976C182.941 36.976 185.949 37.3813 187.955 38.192C190.003 39.0027 191.347 40.176 191.987 41.712C192.669 43.248 193.011 45.3813 193.011 48.112V64.56L197.363 66.48ZM169.203 60.208C169.203 62.2987 169.715 63.792 170.739 64.688C171.805 65.584 173.725 66.032 176.499 66.032C178.547 66.032 180.509 65.6693 182.387 64.944C184.307 64.176 186.056 63.1307 187.635 61.808V55.408C185.245 54.7253 182.365 54.384 178.995 54.384C175.283 54.384 172.723 54.8533 171.315 55.792C169.907 56.7307 169.203 58.2027 169.203 60.208ZM237.321 66.48V70H229.705L228.041 65.392C226.249 67.184 224.329 68.5067 222.281 69.36C220.276 70.2133 217.95 70.64 215.305 70.64C212.404 70.64 210.014 70.1493 208.137 69.168C206.302 68.144 204.916 66.4373 203.977 64.048C203.038 61.616 202.569 58.288 202.569 54.064C202.569 48.048 203.721 43.696 206.025 41.008C208.329 38.32 211.614 36.976 215.881 36.976C217.844 36.976 219.764 37.2533 221.641 37.808C223.518 38.3627 225.502 39.2587 227.593 40.496V30L223.241 28.208V24.56H232.969V64.56L237.321 66.48ZM208.201 54.576C208.201 57.52 208.478 59.824 209.033 61.488C209.63 63.152 210.526 64.3253 211.721 65.008C212.916 65.648 214.473 65.968 216.393 65.968C220.361 65.968 224.094 64.5813 227.593 61.808V44.272C224.905 43.2907 222.857 42.608 221.449 42.224C220.084 41.84 218.654 41.648 217.161 41.648C213.961 41.648 211.657 42.7147 210.249 44.848C208.884 46.9387 208.201 50.1813 208.201 54.576ZM258.251 36.976C262.603 36.976 266.123 38.3413 268.811 41.072C271.541 43.76 272.907 47.7707 272.907 53.104V55.664H247.819C248.032 58.5227 248.544 60.72 249.355 62.256C250.208 63.7493 251.424 64.7947 253.003 65.392C254.624 65.9893 256.843 66.288 259.659 66.288C263.712 66.288 267.723 65.7973 271.691 64.816V69.424C270.027 69.8507 268.085 70.192 265.867 70.448C263.648 70.7467 261.536 70.896 259.531 70.896C253.856 70.896 249.547 69.616 246.603 67.056C243.659 64.496 242.187 60.1227 242.187 53.936C242.187 48.176 243.637 43.9093 246.539 41.136C249.44 38.3627 253.344 36.976 258.251 36.976ZM257.931 41.584C254.603 41.584 252.171 42.3307 250.635 43.824C249.099 45.3173 248.181 47.7493 247.883 51.12H267.211C266.955 47.9627 266.08 45.5947 264.587 44.016C263.093 42.3947 260.875 41.584 257.931 41.584ZM300.155 36.848C302.032 36.848 303.398 37.296 304.251 38.192C305.104 39.088 305.531 40.4747 305.531 42.352C305.531 45.808 303.568 47.536 299.643 47.536L297.083 41.776C295.419 42.2027 293.734 42.8 292.027 43.568C290.363 44.2933 288.87 45.0827 287.547 45.936V64.56L293.499 66.48V70H277.819V66.48L282.171 64.56V43.312L277.819 41.52V37.872H284.923L287.355 41.712C289.488 40.1333 291.664 38.9387 293.883 38.128C296.102 37.2747 298.192 36.848 300.155 36.848ZM371.731 26.48V30.128L367.315 31.984L355.923 70H349.459L339.731 35.888L329.811 70H323.283L311.763 31.984L307.347 30.128V26.48H322.259V30.128L317.523 31.984L326.995 64.24L336.659 30H343.379L353.107 64.176L362.515 31.984L357.779 30.128V26.48H371.731ZM387.568 36.976C392.474 36.976 396.4 38.3413 399.344 41.072C402.33 43.76 403.824 48.048 403.824 53.936C403.824 59.824 402.33 64.1333 399.344 66.864C396.4 69.552 392.474 70.896 387.568 70.896C382.661 70.896 378.714 69.552 375.728 66.864C372.784 64.1333 371.312 59.824 371.312 53.936C371.312 48.048 372.784 43.76 375.728 41.072C378.714 38.3413 382.661 36.976 387.568 36.976ZM387.568 41.584C385.008 41.584 382.96 41.9467 381.424 42.672C379.93 43.3973 378.8 44.656 378.032 46.448C377.306 48.24 376.944 50.736 376.944 53.936C376.944 57.136 377.306 59.632 378.032 61.424C378.8 63.216 379.93 64.4747 381.424 65.2C382.96 65.9253 385.008 66.288 387.568 66.288C390.128 66.288 392.154 65.9253 393.648 65.2C395.184 64.4747 396.314 63.216 397.04 61.424C397.808 59.632 398.192 57.136 398.192 53.936C398.192 50.736 397.808 48.24 397.04 46.448C396.314 44.656 395.184 43.3973 393.648 42.672C392.154 41.9467 390.128 41.584 387.568 41.584ZM431.718 36.848C433.595 36.848 434.96 37.296 435.814 38.192C436.667 39.088 437.094 40.4747 437.094 42.352C437.094 45.808 435.131 47.536 431.206 47.536L428.646 41.776C426.982 42.2027 425.296 42.8 423.59 43.568C421.926 44.2933 420.432 45.0827 419.11 45.936V64.56L425.062 66.48V70H409.382V66.48L413.734 64.56V43.312L409.382 41.52V37.872H416.486L418.918 41.712C421.051 40.1333 423.227 38.9387 425.446 38.128C427.664 37.2747 429.755 36.848 431.718 36.848ZM450.735 64.56L455.087 66.48V70H441.007V66.48L445.359 64.56V30L441.007 28.208V24.56H450.735V64.56ZM495.009 66.48V70H487.393L485.729 65.392C483.937 67.184 482.017 68.5067 479.969 69.36C477.963 70.2133 475.638 70.64 472.993 70.64C470.091 70.64 467.702 70.1493 465.825 69.168C463.99 68.144 462.603 66.4373 461.665 64.048C460.726 61.616 460.257 58.288 460.257 54.064C460.257 48.048 461.409 43.696 463.713 41.008C466.017 38.32 469.302 36.976 473.569 36.976C475.531 36.976 477.451 37.2533 479.329 37.808C481.206 38.3627 483.19 39.2587 485.281 40.496V30L480.929 28.208V24.56H490.657V64.56L495.009 66.48ZM465.889 54.576C465.889 57.52 466.166 59.824 466.72 61.488C467.318 63.152 468.214 64.3253 469.409 65.008C470.603 65.648 472.161 65.968 474.081 65.968C478.049 65.968 481.782 64.5813 485.281 61.808V44.272C482.593 43.2907 480.545 42.608 479.137 42.224C477.771 41.84 476.342 41.648 474.849 41.648C471.649 41.648 469.345 42.7147 467.937 44.848C466.571 46.9387 465.889 50.1813 465.889 54.576Z" fill="#FD823C"/>
</svg>
