<svg width="61" height="60" viewBox="0 0 61 60" fill="none" xmlns="http://www.w3.org/2000/svg">
<path d="M50.5054 46.338C47.8429 42.0526 41.9814 37.46 29.9998 37.46C18.0182 37.46 12.1605 42.0488 9.49414 46.338C11.9508 49.4143 15.0703 51.8978 18.6205 53.6035C22.1707 55.3092 26.0603 56.1933 29.9998 56.19C33.9393 56.1933 37.8289 55.3092 41.3791 53.6035C44.9293 51.8978 48.0488 49.4143 50.5054 46.338Z" fill="white"/>
<path fill-rule="evenodd" clip-rule="evenodd" d="M30 33.7121C32.9837 33.7121 35.8452 32.5281 37.955 30.4207C40.0647 28.3132 41.25 25.4549 41.25 22.4745C41.25 19.4941 40.0647 16.6357 37.955 14.5282C35.8452 12.4208 32.9837 11.2368 30 11.2368C27.0163 11.2368 24.1548 12.4208 22.045 14.5282C19.9353 16.6357 18.75 19.4941 18.75 22.4745C18.75 25.4549 19.9353 28.3132 22.045 30.4207C24.1548 32.5281 27.0163 33.7121 30 33.7121Z" fill="white"/>
<path fill-rule="evenodd" clip-rule="evenodd" d="M30.001 3.746C23.0388 3.746 16.3618 6.50867 11.4388 11.4262C6.51582 16.3438 3.75012 23.0135 3.75012 29.968C3.75012 36.9225 6.51582 43.5922 11.4388 48.5098C16.3618 53.4273 23.0388 56.19 30.001 56.19C36.9631 56.19 43.6401 53.4273 48.5631 48.5098C53.4861 43.5922 56.2518 36.9225 56.2518 29.968C56.2518 23.0135 53.4861 16.3438 48.5631 11.4262C43.6401 6.50867 36.9631 3.746 30.001 3.746ZM0 29.968C0 22.02 3.16081 14.3975 8.78708 8.77742C14.4133 3.15733 22.0442 0 30.001 0C37.9577 0 45.5886 3.15733 51.2148 8.77742C56.8411 14.3975 60.0019 22.02 60.0019 29.968C60.0019 37.916 56.8411 45.5385 51.2148 51.1586C45.5886 56.7787 37.9577 59.936 30.001 59.936C22.0442 59.936 14.4133 56.7787 8.78708 51.1586C3.16081 45.5385 0 37.916 0 29.968Z" fill="white"/>
</svg>
