<svg width="24" height="24" viewBox="0 0 24 24" fill="none" xmlns="http://www.w3.org/2000/svg">
<g clip-path="url(#clip0)">
<path d="M22 17V21C22 21.2652 21.8946 21.5196 21.7071 21.7071C21.5196 21.8946 21.2652 22 21 22H3C2.73478 22 2.48043 21.8946 2.29289 21.7071C2.10536 21.5196 2 21.2652 2 21V17C2 16.7348 1.89464 16.4804 1.70711 16.2929C1.51957 16.1054 1.26522 16 1 16V16C0.734784 16 0.48043 16.1054 0.292893 16.2929C0.105357 16.4804 0 16.7348 0 17L0 21C0 21.7956 0.31607 22.5587 0.87868 23.1213C1.44129 23.6839 2.20435 24 3 24H21C21.7956 24 22.5587 23.6839 23.1213 23.1213C23.6839 22.5587 24 21.7956 24 21V17C24 16.7348 23.8946 16.4804 23.7071 16.2929C23.5196 16.1054 23.2652 16 23 16C22.7348 16 22.4804 16.1054 22.2929 16.2929C22.1054 16.4804 22 16.7348 22 17Z" fill="white"/>
<path d="M18.7076 5.46247L14.1216 0.875473C13.5581 0.314768 12.7955 0 12.0006 0C11.2056 0 10.4431 0.314768 9.87957 0.875473L5.29357 5.46247C5.19806 5.55472 5.12188 5.66506 5.06947 5.78707C5.01706 5.90907 4.98947 6.04029 4.98832 6.17307C4.98717 6.30585 5.01247 6.43753 5.06275 6.56043C5.11303 6.68332 5.18728 6.79498 5.28117 6.88887C5.37507 6.98276 5.48672 7.05701 5.60962 7.10729C5.73251 7.15758 5.86419 7.18288 5.99697 7.18172C6.12975 7.18057 6.26097 7.15298 6.38297 7.10057C6.50498 7.04817 6.61532 6.97198 6.70757 6.87647L11.0006 2.58447V18.0005C11.0006 18.2657 11.1059 18.52 11.2935 18.7076C11.481 18.8951 11.7354 19.0005 12.0006 19.0005C12.2658 19.0005 12.5201 18.8951 12.7077 18.7076C12.8952 18.52 13.0006 18.2657 13.0006 18.0005V2.58347L17.2936 6.87647C17.3858 6.97198 17.4962 7.04817 17.6182 7.10057C17.7402 7.15298 17.8714 7.18057 18.0042 7.18172C18.1369 7.18288 18.2686 7.15758 18.3915 7.10729C18.5144 7.05701 18.6261 6.98276 18.72 6.88887C18.8139 6.79498 18.8881 6.68332 18.9384 6.56043C18.9887 6.43753 19.014 6.30585 19.0128 6.17307C19.0117 6.04029 18.9841 5.90907 18.9317 5.78707C18.8793 5.66506 18.8031 5.55472 18.7076 5.46247V5.46247Z" fill="white"/>
</g>
<defs>
<clipPath id="clip0">
<rect width="24" height="24" fill="white"/>
</clipPath>
</defs>
</svg>
