<svg width="563" height="200" viewBox="0 0 563 200" fill="none" xmlns="http://www.w3.org/2000/svg">
<rect width="563" height="200" rx="100" fill="#202124"/>
<path d="M150 70.93V144.864C150 148.592 146.772 150.371 142.857 153.149C139.715 155.385 135.715 152.614 135.715 148.957V76.7156C135.715 75.2085 135.186 73.7728 133.472 72.8943C131.758 72.0157 78.2019 43.8594 78.2019 43.8594C77.3377 43.5379 73.5664 41.1594 68.5379 43.7451C63.7595 46.2021 61.1596 48.8735 60.4953 50.1306L118.922 82.144C120.472 82.9583 121.429 84.2154 121.429 85.8296V162.985C121.412 163.855 121.157 164.704 120.692 165.44C120.228 166.177 119.572 166.772 118.794 167.163C118.054 167.528 117.24 167.716 116.415 167.713C115.445 167.725 114.491 167.468 113.658 166.97C112.122 166.035 58.1311 132.928 54.5669 130.778C52.8526 129.75 50.8455 127.643 50.8027 126.079L50.0027 52.6091C50.0027 51.1949 49.8384 48.7021 52.0669 45.2379C57.0454 37.4952 74.4163 28.6883 83.209 33.2525L147.486 65.7873C149.036 66.5873 150 68.1873 150 70.93Z" fill="#FFF5EF"/>
<path d="M228.55 109.25V112H222.8L213.4 97.9H204.75V107.7L208.45 109.25V112H196.75V109.25L200.45 107.7V82.3L196.75 80.85V78H216.7C219.933 78 222.383 78.85 224.05 80.55C225.717 82.2167 226.55 84.6833 226.55 87.95C226.55 90.85 225.85 93.1333 224.45 94.8C223.083 96.4333 221.067 97.4167 218.4 97.75L225.15 107.75L228.55 109.25ZM204.75 94.3H215.8C218.033 94.3 219.633 93.8167 220.6 92.85C221.567 91.85 222.05 90.2167 222.05 87.95C222.05 85.7167 221.583 84.1 220.65 83.1C219.75 82.1 218.3 81.6 216.3 81.6H204.75V94.3ZM244.733 86.2C248.133 86.2 250.883 87.2667 252.983 89.4C255.116 91.5 256.183 94.6333 256.183 98.8V100.8H236.583C236.749 103.033 237.149 104.75 237.783 105.95C238.449 107.117 239.399 107.933 240.633 108.4C241.899 108.867 243.633 109.1 245.833 109.1C248.999 109.1 252.133 108.717 255.233 107.95V111.55C253.933 111.883 252.416 112.15 250.683 112.35C248.949 112.583 247.299 112.7 245.733 112.7C241.299 112.7 237.933 111.7 235.633 109.7C233.333 107.7 232.183 104.283 232.183 99.45C232.183 94.95 233.316 91.6167 235.583 89.45C237.849 87.2833 240.899 86.2 244.733 86.2ZM244.483 89.8C241.883 89.8 239.983 90.3833 238.783 91.55C237.583 92.7167 236.866 94.6167 236.633 97.25H251.733C251.533 94.7833 250.849 92.9333 249.683 91.7C248.516 90.4333 246.783 89.8 244.483 89.8ZM286.471 109.25V112H280.521L279.221 108.4C277.854 109.8 276.371 110.833 274.771 111.5C273.204 112.167 271.437 112.5 269.471 112.5C266.271 112.5 263.904 111.883 262.371 110.65C260.837 109.417 260.071 107.417 260.071 104.65C260.071 101.717 260.987 99.6 262.821 98.3C264.654 96.9667 267.604 96.3 271.671 96.3C273.271 96.3 274.671 96.45 275.871 96.75C277.104 97.0167 278.104 97.35 278.871 97.75V95.8C278.871 94.2667 278.671 93.0833 278.271 92.25C277.904 91.3833 277.221 90.7667 276.221 90.4C275.254 90 273.837 89.8 271.971 89.8C268.604 89.8 265.104 90.2 261.471 91V87.4C265.171 86.6 268.704 86.2 272.071 86.2C275.204 86.2 277.554 86.5167 279.121 87.15C280.721 87.7833 281.771 88.7 282.271 89.9C282.804 91.1 283.071 92.7667 283.071 94.9V107.75L286.471 109.25ZM264.471 104.35C264.471 105.983 264.871 107.15 265.671 107.85C266.504 108.55 268.004 108.9 270.171 108.9C271.771 108.9 273.304 108.617 274.771 108.05C276.271 107.45 277.637 106.633 278.871 105.6V100.6C277.004 100.067 274.754 99.8 272.121 99.8C269.221 99.8 267.221 100.167 266.121 100.9C265.021 101.633 264.471 102.783 264.471 104.35ZM317.688 109.25V112H311.738L310.438 108.4C309.038 109.8 307.538 110.833 305.938 111.5C304.372 112.167 302.555 112.5 300.488 112.5C298.222 112.5 296.355 112.117 294.888 111.35C293.455 110.55 292.372 109.217 291.638 107.35C290.905 105.45 290.538 102.85 290.538 99.55C290.538 94.85 291.438 91.45 293.238 89.35C295.038 87.25 297.605 86.2 300.938 86.2C302.472 86.2 303.972 86.4167 305.438 86.85C306.905 87.2833 308.455 87.9833 310.088 88.95V80.75L306.688 79.35V76.5H314.288V107.75L317.688 109.25ZM294.938 99.95C294.938 102.25 295.155 104.05 295.588 105.35C296.055 106.65 296.755 107.567 297.688 108.1C298.622 108.6 299.838 108.85 301.338 108.85C304.438 108.85 307.355 107.767 310.088 105.6V91.9C307.988 91.1333 306.388 90.6 305.288 90.3C304.222 90 303.105 89.85 301.938 89.85C299.438 89.85 297.638 90.6833 296.538 92.35C295.472 93.9833 294.938 96.5167 294.938 99.95ZM334.039 86.2C337.439 86.2 340.189 87.2667 342.289 89.4C344.423 91.5 345.489 94.6333 345.489 98.8V100.8H325.889C326.056 103.033 326.456 104.75 327.089 105.95C327.756 107.117 328.706 107.933 329.939 108.4C331.206 108.867 332.939 109.1 335.139 109.1C338.306 109.1 341.439 108.717 344.539 107.95V111.55C343.239 111.883 341.723 112.15 339.989 112.35C338.256 112.583 336.606 112.7 335.039 112.7C330.606 112.7 327.239 111.7 324.939 109.7C322.639 107.7 321.489 104.283 321.489 99.45C321.489 94.95 322.623 91.6167 324.889 89.45C327.156 87.2833 330.206 86.2 334.039 86.2ZM333.789 89.8C331.189 89.8 329.289 90.3833 328.089 91.55C326.889 92.7167 326.173 94.6167 325.939 97.25H341.039C340.839 94.7833 340.156 92.9333 338.989 91.7C337.823 90.4333 336.089 89.8 333.789 89.8ZM366.777 86.1C368.244 86.1 369.311 86.45 369.977 87.15C370.644 87.85 370.977 88.9333 370.977 90.4C370.977 93.1 369.444 94.45 366.377 94.45L364.377 89.95C363.077 90.2833 361.761 90.75 360.427 91.35C359.127 91.9167 357.961 92.5333 356.927 93.2V107.75L361.577 109.25V112H349.327V109.25L352.727 107.75V91.15L349.327 89.75V86.9H354.877L356.777 89.9C358.444 88.6667 360.144 87.7333 361.877 87.1C363.611 86.4333 365.244 86.1 366.777 86.1ZM422.696 78V80.85L419.246 82.3L410.346 112H405.296L397.696 85.35L389.946 112H384.846L375.846 82.3L372.396 80.85V78H384.046V80.85L380.346 82.3L387.746 107.5L395.296 80.75H400.546L408.146 107.45L415.496 82.3L411.796 80.85V78H422.696ZM435.068 86.2C438.902 86.2 441.968 87.2667 444.268 89.4C446.602 91.5 447.768 94.85 447.768 99.45C447.768 104.05 446.602 107.417 444.268 109.55C441.968 111.65 438.902 112.7 435.068 112.7C431.235 112.7 428.152 111.65 425.818 109.55C423.518 107.417 422.368 104.05 422.368 99.45C422.368 94.85 423.518 91.5 425.818 89.4C428.152 87.2667 431.235 86.2 435.068 86.2ZM435.068 89.8C433.068 89.8 431.468 90.0833 430.268 90.65C429.102 91.2167 428.218 92.2 427.618 93.6C427.052 95 426.768 96.95 426.768 99.45C426.768 101.95 427.052 103.9 427.618 105.3C428.218 106.7 429.102 107.683 430.268 108.25C431.468 108.817 433.068 109.1 435.068 109.1C437.068 109.1 438.652 108.817 439.818 108.25C441.018 107.683 441.902 106.7 442.468 105.3C443.068 103.9 443.368 101.95 443.368 99.45C443.368 96.95 443.068 95 442.468 93.6C441.902 92.2 441.018 91.2167 439.818 90.65C438.652 90.0833 437.068 89.8 435.068 89.8ZM469.561 86.1C471.027 86.1 472.094 86.45 472.761 87.15C473.427 87.85 473.761 88.9333 473.761 90.4C473.761 93.1 472.227 94.45 469.161 94.45L467.161 89.95C465.861 90.2833 464.544 90.75 463.211 91.35C461.911 91.9167 460.744 92.5333 459.711 93.2V107.75L464.361 109.25V112H452.111V109.25L455.511 107.75V91.15L452.111 89.75V86.9H457.661L459.561 89.9C461.227 88.6667 462.927 87.7333 464.661 87.1C466.394 86.4333 468.027 86.1 469.561 86.1ZM484.418 107.75L487.818 109.25V112H476.818V109.25L480.218 107.75V80.75L476.818 79.35V76.5H484.418V107.75ZM519.007 109.25V112H513.057L511.757 108.4C510.357 109.8 508.857 110.833 507.257 111.5C505.69 112.167 503.873 112.5 501.807 112.5C499.54 112.5 497.673 112.117 496.207 111.35C494.773 110.55 493.69 109.217 492.957 107.35C492.223 105.45 491.857 102.85 491.857 99.55C491.857 94.85 492.757 91.45 494.557 89.35C496.357 87.25 498.923 86.2 502.257 86.2C503.79 86.2 505.29 86.4167 506.757 86.85C508.223 87.2833 509.773 87.9833 511.407 88.95V80.75L508.007 79.35V76.5H515.607V107.75L519.007 109.25ZM496.257 99.95C496.257 102.25 496.473 104.05 496.907 105.35C497.373 106.65 498.073 107.567 499.007 108.1C499.94 108.6 501.157 108.85 502.657 108.85C505.757 108.85 508.673 107.767 511.407 105.6V91.9C509.307 91.1333 507.707 90.6 506.607 90.3C505.54 90 504.423 89.85 503.257 89.85C500.757 89.85 498.957 90.6833 497.857 92.35C496.79 93.9833 496.257 96.5167 496.257 99.95Z" fill="#FFF5EF"/>
</svg>
