<svg width="100" height="100" viewBox="0 0 100 100" fill="none" xmlns="http://www.w3.org/2000/svg">
<rect width="100" height="100" fill="#C4C4C4"/>
<path d="M75 35.465V72.4319C75 74.2961 73.3858 75.1854 71.4287 76.5746C69.8573 77.6924 67.8573 76.3068 67.8573 74.4783V38.3578C67.8573 37.6043 67.5931 36.8864 66.7359 36.4471C65.8788 36.0079 39.101 21.9297 39.101 21.9297C38.6688 21.769 36.7832 20.5797 34.269 21.8725C31.8797 23.1011 30.5798 24.4368 30.2476 25.0653L59.4611 41.072C60.2361 41.4791 60.7147 42.1077 60.7147 42.9148V81.4923C60.7058 81.9275 60.5784 82.352 60.3462 82.7202C60.114 83.0883 59.7858 83.3861 59.3968 83.5816C59.0271 83.764 58.62 83.8582 58.2076 83.8566C57.7226 83.8623 57.2455 83.7338 56.8291 83.4851C56.0612 83.0173 29.0655 66.4642 27.2834 65.3892C26.4263 64.8749 25.4228 63.8214 25.4013 63.0393L25.0014 26.3046C25.0014 25.5974 24.9192 24.351 26.0335 22.6189C28.5227 18.7476 37.2082 14.3442 41.6045 16.6262L73.7429 32.8937C74.5179 33.2937 75 34.0936 75 35.465V35.465Z" fill="#323639"/>
</svg>
